# xmcd
#
# Track frame offsets: 
#        150
#        15612
#        29182
#        47877
#        59765
#        75675
#        87945
#        110860
#        128715
#        142802
#        152605
#        164412
#
# Disc length: 2366 seconds
#
# Revision: 0
# Processed by: cddbd v1.4PL0 Copyright (c) Steve Scherf et al.
# Submitted via: ExactAudioCopy v0.95a4
#
DISCID=a4093c0c
DTITLE=Curtis Jones - Trouble Blues
DYEAR=1993
DGENRE=Blues
TTITLE0=Lonesome Bedroom Blues
TTITLE1=A Whole Lot Of Talk For You
TTITLE2=Suicide Blues
TTITLE3=Please Say Yes
TTITLE4=Weekend Blues
TTITLE5=Good Woman Blues
TTITLE6=Trouble Blues
TTITLE7=Love Season
TTITLE8=Low Down Worried Blues
TTITLE9=Good Time Special
TTITLE10=Fool Blues
TTITLE11=Pinetop Boogie
EXTD=
EXTT0=
EXTT1=
EXTT2=
EXTT3=
EXTT4=
EXTT5=
EXTT6=
EXTT7=
EXTT8=
EXTT9=
EXTT10=
EXTT11=
PLAYORDER=
